<mxfile host="Electron" modified="2024-06-27T21:29:46.348Z" agent="Mozilla/5.0 (Windows NT 10.0; Win64; x64) AppleWebKit/537.36 (KHTML, like Gecko) draw.io/24.0.4 Chrome/120.0.6099.109 Electron/28.1.0 Safari/537.36" etag="pjFvM-css_5bWzv127vm" version="24.0.4" type="device">
  <diagram name="PÃ¡gina-1" id="YgmM7d2OCcXGJvouvUHq">
    <mxGraphModel dx="2284" dy="2072" grid="1" gridSize="10" guides="1" tooltips="1" connect="1" arrows="1" fold="1" page="1" pageScale="1" pageWidth="827" pageHeight="1169" math="0" shadow="0">
      <root>
        <mxCell id="0" />
        <mxCell id="1" parent="0" />
        <mxCell id="ndAU6N7ypr7bYZdeNuEL-33" style="edgeStyle=orthogonalEdgeStyle;rounded=0;orthogonalLoop=1;jettySize=auto;html=1;" parent="1" source="ndAU6N7ypr7bYZdeNuEL-5" target="ndAU6N7ypr7bYZdeNuEL-29" edge="1">
          <mxGeometry relative="1" as="geometry" />
        </mxCell>
        <mxCell id="ndAU6N7ypr7bYZdeNuEL-51" style="edgeStyle=orthogonalEdgeStyle;rounded=0;orthogonalLoop=1;jettySize=auto;html=1;" parent="1" source="ndAU6N7ypr7bYZdeNuEL-5" target="ndAU6N7ypr7bYZdeNuEL-47" edge="1">
          <mxGeometry relative="1" as="geometry" />
        </mxCell>
        <mxCell id="ndAU6N7ypr7bYZdeNuEL-5" value="&amp;lt;&amp;lt;Abstract&amp;gt;&amp;gt; Prestamo" style="swimlane;fontStyle=1;align=center;verticalAlign=top;childLayout=stackLayout;horizontal=1;startSize=26;horizontalStack=0;resizeParent=1;resizeParentMax=0;resizeLast=0;collapsible=1;marginBottom=0;whiteSpace=wrap;html=1;" parent="1" vertex="1">
          <mxGeometry x="340" y="150" width="330" height="340" as="geometry" />
        </mxCell>
        <mxCell id="ndAU6N7ypr7bYZdeNuEL-6" value="-monto : Real&lt;div&gt;- cantCuota: integer&lt;/div&gt;" style="text;strokeColor=none;fillColor=none;align=left;verticalAlign=top;spacingLeft=4;spacingRight=4;overflow=hidden;rotatable=0;points=[[0,0.5],[1,0.5]];portConstraint=eastwest;whiteSpace=wrap;html=1;" parent="ndAU6N7ypr7bYZdeNuEL-5" vertex="1">
          <mxGeometry y="26" width="330" height="74" as="geometry" />
        </mxCell>
        <mxCell id="ndAU6N7ypr7bYZdeNuEL-7" value="" style="line;strokeWidth=1;fillColor=none;align=left;verticalAlign=middle;spacingTop=-1;spacingLeft=3;spacingRight=3;rotatable=0;labelPosition=right;points=[];portConstraint=eastwest;strokeColor=inherit;" parent="ndAU6N7ypr7bYZdeNuEL-5" vertex="1">
          <mxGeometry y="100" width="330" height="8" as="geometry" />
        </mxCell>
        <mxCell id="ndAU6N7ypr7bYZdeNuEL-8" value="&lt;div&gt;&amp;lt;create&amp;gt; Prestamo( monto: Real, cantCuota: integer, cliente: Cliente): prestamo&lt;/div&gt;+ valorCuota(): Real&lt;div&gt;#&amp;lt;&amp;lt;abstract&amp;gt;&amp;gt; getInteres(): Real&lt;/div&gt;&lt;div&gt;# getMonto():Real&lt;/div&gt;&lt;div&gt;# getCuotaActual() : Integer&lt;/div&gt;&lt;div&gt;# getCantCuota(): integer&lt;/div&gt;&lt;div&gt;+ valorCuota(): Real&lt;/div&gt;&lt;div&gt;+ pagarCouta()&lt;/div&gt;&lt;div&gt;+montoPagadoDePrestamo(): Real&lt;br&gt;&lt;/div&gt;&lt;div&gt;+montoRestanteDePrestamo(): Real&lt;br&gt;&lt;/div&gt;&lt;div&gt;+ gastosDeCancelacion(): Real&lt;/div&gt;&lt;div&gt;# valorAdministrativo(): real&lt;/div&gt;&lt;div&gt;#&lt;/div&gt;" style="text;strokeColor=none;fillColor=none;align=left;verticalAlign=top;spacingLeft=4;spacingRight=4;overflow=hidden;rotatable=0;points=[[0,0.5],[1,0.5]];portConstraint=eastwest;whiteSpace=wrap;html=1;" parent="ndAU6N7ypr7bYZdeNuEL-5" vertex="1">
          <mxGeometry y="108" width="330" height="232" as="geometry" />
        </mxCell>
        <mxCell id="ndAU6N7ypr7bYZdeNuEL-9" value="PrestamoSimple" style="swimlane;fontStyle=1;align=center;verticalAlign=top;childLayout=stackLayout;horizontal=1;startSize=26;horizontalStack=0;resizeParent=1;resizeParentMax=0;resizeLast=0;collapsible=1;marginBottom=0;whiteSpace=wrap;html=1;" parent="1" vertex="1">
          <mxGeometry x="190" y="560" width="270" height="150" as="geometry" />
        </mxCell>
        <mxCell id="ndAU6N7ypr7bYZdeNuEL-10" value="- interes" style="text;strokeColor=none;fillColor=none;align=left;verticalAlign=top;spacingLeft=4;spacingRight=4;overflow=hidden;rotatable=0;points=[[0,0.5],[1,0.5]];portConstraint=eastwest;whiteSpace=wrap;html=1;" parent="ndAU6N7ypr7bYZdeNuEL-9" vertex="1">
          <mxGeometry y="26" width="270" height="26" as="geometry" />
        </mxCell>
        <mxCell id="ndAU6N7ypr7bYZdeNuEL-11" value="" style="line;strokeWidth=1;fillColor=none;align=left;verticalAlign=middle;spacingTop=-1;spacingLeft=3;spacingRight=3;rotatable=0;labelPosition=right;points=[];portConstraint=eastwest;strokeColor=inherit;" parent="ndAU6N7ypr7bYZdeNuEL-9" vertex="1">
          <mxGeometry y="52" width="270" height="8" as="geometry" />
        </mxCell>
        <mxCell id="ndAU6N7ypr7bYZdeNuEL-12" value="&lt;div&gt;+&amp;lt;create&amp;gt; PrestamoSimple( monto: Real, cantCuota:integer, cliente:Cliente,&amp;nbsp;&lt;span style=&quot;background-color: initial;&quot;&gt;interes: Real&lt;/span&gt;&lt;span style=&quot;background-color: initial;&quot;&gt;): prestamoSimple&lt;/span&gt;&lt;/div&gt;# getInteres(): Real" style="text;strokeColor=none;fillColor=none;align=left;verticalAlign=top;spacingLeft=4;spacingRight=4;overflow=hidden;rotatable=0;points=[[0,0.5],[1,0.5]];portConstraint=eastwest;whiteSpace=wrap;html=1;" parent="ndAU6N7ypr7bYZdeNuEL-9" vertex="1">
          <mxGeometry y="60" width="270" height="90" as="geometry" />
        </mxCell>
        <mxCell id="ndAU6N7ypr7bYZdeNuEL-13" value="PrestamoUva" style="swimlane;fontStyle=1;align=center;verticalAlign=top;childLayout=stackLayout;horizontal=1;startSize=26;horizontalStack=0;resizeParent=1;resizeParentMax=0;resizeLast=0;collapsible=1;marginBottom=0;whiteSpace=wrap;html=1;" parent="1" vertex="1">
          <mxGeometry x="520" y="560" width="270" height="150" as="geometry" />
        </mxCell>
        <mxCell id="ndAU6N7ypr7bYZdeNuEL-14" value="+ field: type" style="text;strokeColor=none;fillColor=none;align=left;verticalAlign=top;spacingLeft=4;spacingRight=4;overflow=hidden;rotatable=0;points=[[0,0.5],[1,0.5]];portConstraint=eastwest;whiteSpace=wrap;html=1;" parent="ndAU6N7ypr7bYZdeNuEL-13" vertex="1">
          <mxGeometry y="26" width="270" height="26" as="geometry" />
        </mxCell>
        <mxCell id="ndAU6N7ypr7bYZdeNuEL-15" value="" style="line;strokeWidth=1;fillColor=none;align=left;verticalAlign=middle;spacingTop=-1;spacingLeft=3;spacingRight=3;rotatable=0;labelPosition=right;points=[];portConstraint=eastwest;strokeColor=inherit;" parent="ndAU6N7ypr7bYZdeNuEL-13" vertex="1">
          <mxGeometry y="52" width="270" height="8" as="geometry" />
        </mxCell>
        <mxCell id="ndAU6N7ypr7bYZdeNuEL-16" value="&lt;div&gt;&amp;lt;create&amp;gt; PrestamoUva( monto: Real, cantCuota,&amp;nbsp;&lt;span style=&quot;background-color: initial;&quot;&gt;cliente: Cliente&lt;/span&gt;&lt;span style=&quot;background-color: initial;&quot;&gt;): prestamo&lt;/span&gt;&lt;/div&gt;+ getInteres(): Real" style="text;strokeColor=none;fillColor=none;align=left;verticalAlign=top;spacingLeft=4;spacingRight=4;overflow=hidden;rotatable=0;points=[[0,0.5],[1,0.5]];portConstraint=eastwest;whiteSpace=wrap;html=1;" parent="ndAU6N7ypr7bYZdeNuEL-13" vertex="1">
          <mxGeometry y="60" width="270" height="90" as="geometry" />
        </mxCell>
        <mxCell id="ndAU6N7ypr7bYZdeNuEL-17" value="" style="endArrow=block;endSize=16;endFill=0;html=1;rounded=0;exitX=0.5;exitY=0;exitDx=0;exitDy=0;" parent="1" source="ndAU6N7ypr7bYZdeNuEL-9" target="ndAU6N7ypr7bYZdeNuEL-5" edge="1">
          <mxGeometry width="160" relative="1" as="geometry">
            <mxPoint x="334" y="130" as="sourcePoint" />
            <mxPoint x="494" y="130" as="targetPoint" />
          </mxGeometry>
        </mxCell>
        <mxCell id="ndAU6N7ypr7bYZdeNuEL-18" value="" style="endArrow=block;endSize=16;endFill=0;html=1;rounded=0;exitX=0.5;exitY=0;exitDx=0;exitDy=0;" parent="1" source="ndAU6N7ypr7bYZdeNuEL-13" target="ndAU6N7ypr7bYZdeNuEL-5" edge="1">
          <mxGeometry width="160" relative="1" as="geometry">
            <mxPoint x="410" y="310" as="sourcePoint" />
            <mxPoint x="459" y="276" as="targetPoint" />
          </mxGeometry>
        </mxCell>
        <mxCell id="ndAU6N7ypr7bYZdeNuEL-19" value="Banco" style="swimlane;fontStyle=0;childLayout=stackLayout;horizontal=1;startSize=26;fillColor=none;horizontalStack=0;resizeParent=1;resizeParentMax=0;resizeLast=0;collapsible=1;marginBottom=0;whiteSpace=wrap;html=1;" parent="1" vertex="1">
          <mxGeometry x="-180" y="-110" width="380" height="180" as="geometry" />
        </mxCell>
        <mxCell id="ndAU6N7ypr7bYZdeNuEL-20" value="+ registrarCliente()&lt;div&gt;+ solicitarPrestamo( prestamos: Prestamo): Prestamo&lt;div&gt;+ calcularEstado(monto: real ) : Boolean&lt;/div&gt;&lt;div&gt;+ pagarCuota()&lt;/div&gt;&lt;div&gt;+montoPagadoDePrestamo(): Real&lt;/div&gt;&lt;div&gt;+montoRestanteDePrestamo(): Real&lt;/div&gt;&lt;div&gt;+ gastosDeCancelacion(): Real&lt;/div&gt;&lt;/div&gt;&lt;div&gt;&lt;br&gt;&lt;/div&gt;&lt;div&gt;&lt;br&gt;&lt;/div&gt;" style="text;strokeColor=none;fillColor=none;align=left;verticalAlign=top;spacingLeft=4;spacingRight=4;overflow=hidden;rotatable=0;points=[[0,0.5],[1,0.5]];portConstraint=eastwest;whiteSpace=wrap;html=1;" parent="ndAU6N7ypr7bYZdeNuEL-19" vertex="1">
          <mxGeometry y="26" width="380" height="154" as="geometry" />
        </mxCell>
        <mxCell id="uw_LWZwM7fNMwHH9JbFp-2" style="edgeStyle=orthogonalEdgeStyle;rounded=0;orthogonalLoop=1;jettySize=auto;html=1;entryX=0.5;entryY=0;entryDx=0;entryDy=0;" edge="1" parent="1" source="ndAU6N7ypr7bYZdeNuEL-23" target="ndAU6N7ypr7bYZdeNuEL-5">
          <mxGeometry relative="1" as="geometry" />
        </mxCell>
        <mxCell id="ndAU6N7ypr7bYZdeNuEL-23" value="Cliente" style="swimlane;fontStyle=1;align=center;verticalAlign=top;childLayout=stackLayout;horizontal=1;startSize=26;horizontalStack=0;resizeParent=1;resizeParentMax=0;resizeLast=0;collapsible=1;marginBottom=0;whiteSpace=wrap;html=1;" parent="1" vertex="1">
          <mxGeometry x="350" y="-110" width="320" height="130" as="geometry" />
        </mxCell>
        <mxCell id="ndAU6N7ypr7bYZdeNuEL-24" value="- nombre : String&lt;div&gt;- salario: Real&lt;/div&gt;&lt;div&gt;&lt;br&gt;&lt;/div&gt;" style="text;strokeColor=none;fillColor=none;align=left;verticalAlign=top;spacingLeft=4;spacingRight=4;overflow=hidden;rotatable=0;points=[[0,0.5],[1,0.5]];portConstraint=eastwest;whiteSpace=wrap;html=1;" parent="ndAU6N7ypr7bYZdeNuEL-23" vertex="1">
          <mxGeometry y="26" width="320" height="44" as="geometry" />
        </mxCell>
        <mxCell id="ndAU6N7ypr7bYZdeNuEL-25" value="" style="line;strokeWidth=1;fillColor=none;align=left;verticalAlign=middle;spacingTop=-1;spacingLeft=3;spacingRight=3;rotatable=0;labelPosition=right;points=[];portConstraint=eastwest;strokeColor=inherit;" parent="ndAU6N7ypr7bYZdeNuEL-23" vertex="1">
          <mxGeometry y="70" width="320" height="8" as="geometry" />
        </mxCell>
        <mxCell id="ndAU6N7ypr7bYZdeNuEL-26" value="&amp;lt;create&amp;gt; Cliente(nombre:String, salario:Real)&lt;div&gt;+ getSueldo(): Real&lt;/div&gt;&lt;div&gt;+ aptoPrestamo(valorCuota: Real): boolean&lt;/div&gt;" style="text;strokeColor=none;fillColor=none;align=left;verticalAlign=top;spacingLeft=4;spacingRight=4;overflow=hidden;rotatable=0;points=[[0,0.5],[1,0.5]];portConstraint=eastwest;whiteSpace=wrap;html=1;" parent="ndAU6N7ypr7bYZdeNuEL-23" vertex="1">
          <mxGeometry y="78" width="320" height="52" as="geometry" />
        </mxCell>
        <mxCell id="ndAU6N7ypr7bYZdeNuEL-29" value="&amp;lt;&amp;lt;Abstract&amp;gt;&amp;gt;Estado" style="swimlane;fontStyle=0;childLayout=stackLayout;horizontal=1;startSize=26;fillColor=none;horizontalStack=0;resizeParent=1;resizeParentMax=0;resizeLast=0;collapsible=1;marginBottom=0;whiteSpace=wrap;html=1;" parent="1" vertex="1">
          <mxGeometry x="-190" y="255" width="350" height="130" as="geometry" />
        </mxCell>
        <mxCell id="ndAU6N7ypr7bYZdeNuEL-32" value="&lt;div&gt;+pagarCouta (prestamo: Prestamo)&lt;/div&gt;+ setEstado(estado)&lt;div&gt;+ gastoDeCancelacion()&lt;/div&gt;" style="text;strokeColor=none;fillColor=none;align=left;verticalAlign=top;spacingLeft=4;spacingRight=4;overflow=hidden;rotatable=0;points=[[0,0.5],[1,0.5]];portConstraint=eastwest;whiteSpace=wrap;html=1;" parent="ndAU6N7ypr7bYZdeNuEL-29" vertex="1">
          <mxGeometry y="26" width="350" height="104" as="geometry" />
        </mxCell>
        <mxCell id="ndAU6N7ypr7bYZdeNuEL-34" value="EstadoAceptado" style="swimlane;fontStyle=1;align=center;verticalAlign=top;childLayout=stackLayout;horizontal=1;startSize=26;horizontalStack=0;resizeParent=1;resizeParentMax=0;resizeLast=0;collapsible=1;marginBottom=0;whiteSpace=wrap;html=1;" parent="1" vertex="1">
          <mxGeometry x="-470" y="142" width="160" height="86" as="geometry" />
        </mxCell>
        <mxCell id="ndAU6N7ypr7bYZdeNuEL-35" value="+ field: type" style="text;strokeColor=none;fillColor=none;align=left;verticalAlign=top;spacingLeft=4;spacingRight=4;overflow=hidden;rotatable=0;points=[[0,0.5],[1,0.5]];portConstraint=eastwest;whiteSpace=wrap;html=1;" parent="ndAU6N7ypr7bYZdeNuEL-34" vertex="1">
          <mxGeometry y="26" width="160" height="26" as="geometry" />
        </mxCell>
        <mxCell id="ndAU6N7ypr7bYZdeNuEL-36" value="" style="line;strokeWidth=1;fillColor=none;align=left;verticalAlign=middle;spacingTop=-1;spacingLeft=3;spacingRight=3;rotatable=0;labelPosition=right;points=[];portConstraint=eastwest;strokeColor=inherit;" parent="ndAU6N7ypr7bYZdeNuEL-34" vertex="1">
          <mxGeometry y="52" width="160" height="8" as="geometry" />
        </mxCell>
        <mxCell id="ndAU6N7ypr7bYZdeNuEL-37" value="+ method(type): type" style="text;strokeColor=none;fillColor=none;align=left;verticalAlign=top;spacingLeft=4;spacingRight=4;overflow=hidden;rotatable=0;points=[[0,0.5],[1,0.5]];portConstraint=eastwest;whiteSpace=wrap;html=1;" parent="ndAU6N7ypr7bYZdeNuEL-34" vertex="1">
          <mxGeometry y="60" width="160" height="26" as="geometry" />
        </mxCell>
        <mxCell id="ndAU6N7ypr7bYZdeNuEL-38" value="EstadoRechazado" style="swimlane;fontStyle=1;align=center;verticalAlign=top;childLayout=stackLayout;horizontal=1;startSize=26;horizontalStack=0;resizeParent=1;resizeParentMax=0;resizeLast=0;collapsible=1;marginBottom=0;whiteSpace=wrap;html=1;" parent="1" vertex="1">
          <mxGeometry x="-470" y="276" width="160" height="86" as="geometry" />
        </mxCell>
        <mxCell id="ndAU6N7ypr7bYZdeNuEL-39" value="+ field: type" style="text;strokeColor=none;fillColor=none;align=left;verticalAlign=top;spacingLeft=4;spacingRight=4;overflow=hidden;rotatable=0;points=[[0,0.5],[1,0.5]];portConstraint=eastwest;whiteSpace=wrap;html=1;" parent="ndAU6N7ypr7bYZdeNuEL-38" vertex="1">
          <mxGeometry y="26" width="160" height="26" as="geometry" />
        </mxCell>
        <mxCell id="ndAU6N7ypr7bYZdeNuEL-40" value="" style="line;strokeWidth=1;fillColor=none;align=left;verticalAlign=middle;spacingTop=-1;spacingLeft=3;spacingRight=3;rotatable=0;labelPosition=right;points=[];portConstraint=eastwest;strokeColor=inherit;" parent="ndAU6N7ypr7bYZdeNuEL-38" vertex="1">
          <mxGeometry y="52" width="160" height="8" as="geometry" />
        </mxCell>
        <mxCell id="ndAU6N7ypr7bYZdeNuEL-41" value="+ method(type): type" style="text;strokeColor=none;fillColor=none;align=left;verticalAlign=top;spacingLeft=4;spacingRight=4;overflow=hidden;rotatable=0;points=[[0,0.5],[1,0.5]];portConstraint=eastwest;whiteSpace=wrap;html=1;" parent="ndAU6N7ypr7bYZdeNuEL-38" vertex="1">
          <mxGeometry y="60" width="160" height="26" as="geometry" />
        </mxCell>
        <mxCell id="ndAU6N7ypr7bYZdeNuEL-42" value="EstadoFinalizado" style="swimlane;fontStyle=1;align=center;verticalAlign=top;childLayout=stackLayout;horizontal=1;startSize=26;horizontalStack=0;resizeParent=1;resizeParentMax=0;resizeLast=0;collapsible=1;marginBottom=0;whiteSpace=wrap;html=1;" parent="1" vertex="1">
          <mxGeometry x="-470" y="412" width="160" height="86" as="geometry" />
        </mxCell>
        <mxCell id="ndAU6N7ypr7bYZdeNuEL-43" value="+ field: type" style="text;strokeColor=none;fillColor=none;align=left;verticalAlign=top;spacingLeft=4;spacingRight=4;overflow=hidden;rotatable=0;points=[[0,0.5],[1,0.5]];portConstraint=eastwest;whiteSpace=wrap;html=1;" parent="ndAU6N7ypr7bYZdeNuEL-42" vertex="1">
          <mxGeometry y="26" width="160" height="26" as="geometry" />
        </mxCell>
        <mxCell id="ndAU6N7ypr7bYZdeNuEL-44" value="" style="line;strokeWidth=1;fillColor=none;align=left;verticalAlign=middle;spacingTop=-1;spacingLeft=3;spacingRight=3;rotatable=0;labelPosition=right;points=[];portConstraint=eastwest;strokeColor=inherit;" parent="ndAU6N7ypr7bYZdeNuEL-42" vertex="1">
          <mxGeometry y="52" width="160" height="8" as="geometry" />
        </mxCell>
        <mxCell id="ndAU6N7ypr7bYZdeNuEL-45" value="+ method(type): type" style="text;strokeColor=none;fillColor=none;align=left;verticalAlign=top;spacingLeft=4;spacingRight=4;overflow=hidden;rotatable=0;points=[[0,0.5],[1,0.5]];portConstraint=eastwest;whiteSpace=wrap;html=1;" parent="ndAU6N7ypr7bYZdeNuEL-42" vertex="1">
          <mxGeometry y="60" width="160" height="26" as="geometry" />
        </mxCell>
        <mxCell id="ndAU6N7ypr7bYZdeNuEL-46" value="1&lt;div&gt;-estado&lt;/div&gt;" style="text;html=1;align=center;verticalAlign=middle;resizable=0;points=[];autosize=1;strokeColor=none;fillColor=none;" parent="1" vertex="1">
          <mxGeometry x="205" y="260" width="60" height="40" as="geometry" />
        </mxCell>
        <mxCell id="ndAU6N7ypr7bYZdeNuEL-47" value="Pago" style="swimlane;fontStyle=1;align=center;verticalAlign=top;childLayout=stackLayout;horizontal=1;startSize=26;horizontalStack=0;resizeParent=1;resizeParentMax=0;resizeLast=0;collapsible=1;marginBottom=0;whiteSpace=wrap;html=1;" parent="1" vertex="1">
          <mxGeometry x="800" y="240" width="210" height="150" as="geometry" />
        </mxCell>
        <mxCell id="ndAU6N7ypr7bYZdeNuEL-48" value="-monto&lt;div&gt;- fecha: Date&lt;/div&gt;" style="text;strokeColor=none;fillColor=none;align=left;verticalAlign=top;spacingLeft=4;spacingRight=4;overflow=hidden;rotatable=0;points=[[0,0.5],[1,0.5]];portConstraint=eastwest;whiteSpace=wrap;html=1;" parent="ndAU6N7ypr7bYZdeNuEL-47" vertex="1">
          <mxGeometry y="26" width="210" height="54" as="geometry" />
        </mxCell>
        <mxCell id="ndAU6N7ypr7bYZdeNuEL-49" value="" style="line;strokeWidth=1;fillColor=none;align=left;verticalAlign=middle;spacingTop=-1;spacingLeft=3;spacingRight=3;rotatable=0;labelPosition=right;points=[];portConstraint=eastwest;strokeColor=inherit;" parent="ndAU6N7ypr7bYZdeNuEL-47" vertex="1">
          <mxGeometry y="80" width="210" height="8" as="geometry" />
        </mxCell>
        <mxCell id="ndAU6N7ypr7bYZdeNuEL-50" value="&amp;lt;create&amp;gt; Pago(monto:Real)&lt;div&gt;+ getMonto(): Real&lt;/div&gt;" style="text;strokeColor=none;fillColor=none;align=left;verticalAlign=top;spacingLeft=4;spacingRight=4;overflow=hidden;rotatable=0;points=[[0,0.5],[1,0.5]];portConstraint=eastwest;whiteSpace=wrap;html=1;" parent="ndAU6N7ypr7bYZdeNuEL-47" vertex="1">
          <mxGeometry y="88" width="210" height="62" as="geometry" />
        </mxCell>
        <mxCell id="ndAU6N7ypr7bYZdeNuEL-52" value="*&lt;div&gt;-cuotaspagas&lt;/div&gt;" style="text;html=1;align=center;verticalAlign=middle;resizable=0;points=[];autosize=1;strokeColor=none;fillColor=none;" parent="1" vertex="1">
          <mxGeometry x="690" y="260" width="100" height="40" as="geometry" />
        </mxCell>
        <mxCell id="ndAU6N7ypr7bYZdeNuEL-53" style="edgeStyle=orthogonalEdgeStyle;rounded=0;orthogonalLoop=1;jettySize=auto;html=1;" parent="1" source="ndAU6N7ypr7bYZdeNuEL-20" target="ndAU6N7ypr7bYZdeNuEL-23" edge="1">
          <mxGeometry relative="1" as="geometry" />
        </mxCell>
        <mxCell id="ndAU6N7ypr7bYZdeNuEL-54" value="*&lt;div&gt;-clientes&lt;/div&gt;" style="text;html=1;align=center;verticalAlign=middle;resizable=0;points=[];autosize=1;strokeColor=none;fillColor=none;" parent="1" vertex="1">
          <mxGeometry x="215" y="-87" width="70" height="40" as="geometry" />
        </mxCell>
        <mxCell id="ndAU6N7ypr7bYZdeNuEL-59" value="&lt;div&gt;*&lt;/div&gt;- prestamos" style="text;html=1;align=center;verticalAlign=middle;resizable=0;points=[];autosize=1;strokeColor=none;fillColor=none;" parent="1" vertex="1">
          <mxGeometry x="540" y="60" width="90" height="40" as="geometry" />
        </mxCell>
        <mxCell id="ndAU6N7ypr7bYZdeNuEL-61" value="" style="endArrow=block;endSize=16;endFill=0;html=1;rounded=0;" parent="1" source="ndAU6N7ypr7bYZdeNuEL-42" target="ndAU6N7ypr7bYZdeNuEL-29" edge="1">
          <mxGeometry width="160" relative="1" as="geometry">
            <mxPoint x="-300" y="470" as="sourcePoint" />
            <mxPoint x="-247" y="400" as="targetPoint" />
          </mxGeometry>
        </mxCell>
        <mxCell id="ndAU6N7ypr7bYZdeNuEL-63" value="" style="endArrow=block;endSize=16;endFill=0;html=1;rounded=0;" parent="1" source="ndAU6N7ypr7bYZdeNuEL-38" target="ndAU6N7ypr7bYZdeNuEL-29" edge="1">
          <mxGeometry width="160" relative="1" as="geometry">
            <mxPoint x="-316" y="422" as="sourcePoint" />
            <mxPoint x="-180" y="343" as="targetPoint" />
          </mxGeometry>
        </mxCell>
        <mxCell id="ndAU6N7ypr7bYZdeNuEL-64" value="" style="endArrow=block;endSize=16;endFill=0;html=1;rounded=0;" parent="1" source="ndAU6N7ypr7bYZdeNuEL-34" target="ndAU6N7ypr7bYZdeNuEL-29" edge="1">
          <mxGeometry width="160" relative="1" as="geometry">
            <mxPoint x="-306" y="432" as="sourcePoint" />
            <mxPoint x="-170" y="353" as="targetPoint" />
          </mxGeometry>
        </mxCell>
      </root>
    </mxGraphModel>
  </diagram>
</mxfile>
